<svg enable-background="new 0 0 482 138" viewBox="0 0 482 138" xmlns="http://www.w3.org/2000/svg"><path d="m56.3 103.4c-.2.2-.5.3-.7.3-.3 0-.6-.1-.8-.2v-65.1h-6.4v73.2h69.1c1.1-1.8 2.2-2.4 3.8-2 .6.1 1.1.4 1.5.9.4.4.6 1 .7 1.6s-.1 1.2-.4 1.7-.8.9-1.3 1.1c-1.5.6-2.8.2-4.3-1.6h-70c-1.1-.6-.8-1.4-.8-2.2v-70.7c.1-.7 0-1.3-.1-2h-7.1v64.8c-.3.2-.6.4-1 .5s-.7.1-1.1.1h-15.1c-1.3 0-1.9-.5-1.9-1.5s.7-1.5 2-1.5h12.9c.4.1.8 0 1.1-.2v-62.1c-.4-.3-.9-.1-1.4-.1-4.1-.1-8.2 0-12.4 0h-1.2c-.4 0-.7-.2-.9-.5s-.3-.6-.3-1c0-.2 0-.3.1-.5s.1-.3.2-.4.2-.2.4-.3.3-.1.5-.1h61.3c.4 0 .8.2 1.1.5s.4.7.4 1.1-.2.7-.4 1c-.3.3-.6.4-1 .4h-1.2c-4.6 0-9.2-.1-13.8 0-.6-.1-1.2-.1-1.7.1v62c.6.3 1.3.3 1.9.2h70c1.7 0 2 .5 1.8 2.3-.2.2-.4.4-.7.6-.3.1-.6.2-.9.1h-71.5c-1.2 0-2.4.5-3.6-.5v-65h-6.8z" fill="#191919"/><path d="m159.9 51.2h5.5l14.5 24.6h.2v-24.6h4.2v31h-5.6l-14.4-24.5h-.3v24.5h-4.1z" fill="#191919"/><path d="m357.1 68.9h-11.7c-.2-1.2-.3-2.5-.2-3.7h16.4c1.2 5.7-2.5 13.9-10.5 16.5s-17.1-.7-20.4-9c-1.6-3.7-1.7-8-.2-11.8s4.4-6.9 8.1-8.5c7.6-3.5 16.9-.8 20.6 5.8-.4.6-1.1.7-1.7 1-.6.4-1.2.7-1.9.8-1.1-1.6-2.5-2.8-4.2-3.7s-3.6-1.4-5.5-1.4c-2.6-.1-5.1.6-7.2 2.2-2.2 1.5-3.8 3.7-4.5 6.3-.7 2.5-.6 5.3.4 7.7 1 2.6 2.9 4.7 5.3 6s5.2 1.8 7.9 1.3c4.5-.7 9-5.2 9.3-9.5z" fill="#3ed9d7"/><path d="m116.1 58.4-3.6 1.7c-2.7-3.6-6.2-5.5-10.7-5.2-1.6.1-3.1.4-4.5 1.1s-2.7 1.7-3.7 2.9c-2.1 2.4-3.1 5.4-2.9 8.5s1.5 6 3.8 8.2c1.3 1.1 2.8 1.9 4.4 2.4s3.3.6 5 .4 3.3-.8 4.8-1.6c1.5-.9 2.7-2 3.7-3.4l3.7 1.7c-3.1 5.8-10.9 8.8-17.9 7-3.5-.9-6.5-2.9-8.7-5.8s-3.3-6.4-3.2-9.9c0-3.5 1.2-6.8 3.4-9.6 2.2-2.7 5.2-4.6 8.5-5.4 7.8-1.9 15.1 1.6 17.9 7z" fill="#191919"/><path d="m211.1 65.6c.1 1.1.1 2.2 0 3.3h-14.9v13.2h-4.3v-30.9h20.5c.2 1.1.2 2.3.1 3.4h-16.2v11z" fill="#1a1a1a"/><path d="m82 22.6c.2.1.4.3.6.6.2.2.3.5.3.7 0 .3-.1.6-.2.8s-.3.5-.6.6c-.6.2-1.3.3-2 .2h-56.8c-.7 0-1.4-.1-1.7-.8-.2-.4-.2-.8-.1-1.2s.4-.7.8-.9z" fill="#1b1b1b"/><path d="m224.2 82.2h-4.2v-30.9c1.3-.5 2.7-.1 4.2-.3z" fill="#1b1b1b"/><path d="m87.5 29.7c.2.2.3.4.3.7s-.1.5-.3.7h-70.7c-.1-.1-.2-.2-.2-.3s-.1-.3-.1-.4 0-.3.1-.4l.3-.3z" fill="#212121"/><path d="m288.3 71.8c-.3-1.2-.9-2.4-1.8-3.3-.9-1-1.9-1.7-3.1-2.2l.6-.5c4.1-2.4 4.4-8.2 2.1-11.3-.8-1.1-1.8-1.9-3-2.5s-2.5-.9-3.8-.9h-15.3v30.9c.4.2.9.3 1.3.2h15.2c1.3 0 2.5-.3 3.6-.8 1.1-.6 2.1-1.4 2.9-2.4s1.3-2.2 1.5-3.4c.2-1.3.2-2.6-.2-3.8zm-19.9-17.3h9.9c.7 0 1.3.2 1.9.4.6.3 1.2.7 1.6 1.2.5.5.8 1.1 1 1.7s.3 1.3.2 2c0 .7-.1 1.3-.3 2-.2.6-.6 1.2-1 1.7-.5.5-1 .9-1.6 1.1-.6.3-1.3.4-1.9.4-2.7.1-5.4 0-8.1 0h-1.7zm14.6 22.5c-.9 1-2.1 1.6-3.4 1.7-3.7.2-7.4.1-11.2.1v-10.2l.4-.2h10.8c2.6 0 4.7 2.4 4.8 5.1 0 1.3-.5 2.6-1.4 3.5z" fill="#3ed9d7"/><path d="m458.7 58c-3.6-5.3-8.7-7.4-15-7-4 .4-7.7 2.4-10.3 5.5s-3.9 7-3.8 11c.2 4 1.9 7.8 4.8 10.6s6.7 4.4 10.7 4.5h2.2c13.4-2.2 17-16 11.4-24.6zm-2.6 13.2c-.6 1.5-1.5 2.8-2.6 3.9s-2.4 2-3.9 2.6-3 .9-4.6.8c-6.2.1-12.1-5.2-11.7-11.8-.1-1.6.2-3.1.8-4.6s1.5-2.8 2.6-3.9 2.5-2 3.9-2.5c1.5-.6 3-.8 4.6-.8 1.5 0 3.1.3 4.5.8 1.4.6 2.7 1.4 3.8 2.5s2 2.4 2.6 3.8.9 3 .9 4.5c0 1.7-.3 3.2-.9 4.7z" fill="#3ed9d7"/><path d="m137.7 50.9c-2.1 0-4.1.4-6.1 1.2s-3.7 1.9-5.1 3.4c-1.5 1.5-2.7 3.2-3.5 5.1s-1.2 4-1.2 6 .4 4.1 1.2 6.1c.8 1.9 1.9 3.7 3.4 5.1 1.5 1.5 3.2 2.7 5.1 3.5s4 1.2 6 1.2c9.3 0 16.3-7.8 16.3-15.7s-5.7-15.8-16.1-15.9zm10 22.5c-1.3 2-3.2 3.6-5.4 4.5s-4.6 1.2-7 .8-4.5-1.6-6.2-3.3-2.9-3.8-3.3-6.2c-.5-2.3-.2-4.8.7-7s2.5-4.1 4.5-5.4 4.4-2 6.8-1.9c3.1 0 6.1 1.3 8.3 3.4 2.2 2.2 3.5 5.1 3.5 8.3.1 2.4-.6 4.8-1.9 6.8z" fill="#191919"/><g fill="#3ed9d7"><path d="m309.2 50.9c-4.2 0-8.2 1.6-11.2 4.5s-4.7 6.9-4.7 11.1 1.6 8.2 4.5 11.2c1.5 1.5 3.2 2.7 5.1 3.5s4 1.2 6 1.3c9.1.2 16.2-7.2 16.3-15.6s-5.7-15.9-16-16zm11 20.4c-.6 1.5-1.5 2.8-2.6 3.9s-2.5 2-3.9 2.5c-1.5.6-3 .9-4.6.8-1.6 0-3.1-.2-4.6-.8s-2.8-1.5-3.9-2.6-2-2.4-2.5-3.9-.8-3-.8-4.6c.1-6.8 5.1-11.8 12.2-11.7 1.5 0 3.1.3 4.5.9s2.7 1.5 3.8 2.6 1.9 2.4 2.5 3.8.9 3 .9 4.5c-.1 1.6-.4 3.1-1 4.6z"/><path d="m424.5 64.7c-.3-3.1-1.6-6.1-3.7-8.4-2.1-2.4-4.9-4-8-4.7-5.1-1.1-10.2-.3-15.4-.6-.4 1.7-.4 29.7-.1 31.1h14.4c4-.6 7.6-2.8 10-6.1 2.4-3.2 3.4-7.3 2.8-11.3zm-6.2 8.8c-1.5 2.3-3.8 4-6.4 4.8-1 .3-2 .5-3 .5h-7.4v-24.1c3.4.2 6.6-.4 9.8.4 2.5.5 4.7 1.9 6.3 3.8s2.6 4.4 2.7 6.9c.3 2.7-.4 5.5-2 7.7z"/><path d="m247.6 51.2h-6.2c-3.6 10.3-7.1 20.6-10.7 31h4.2c1.1-2 1.3-4.3 2.4-6.2h14.5c.8 2.1 1.5 4.2 2.2 6.2 1.4.1 2.9.1 4.3-.1zm-9.2 21c2.1-5.8 4-11.4 6.1-17.4l6 17.4z"/><path d="m380.8 51.2h-6.2l-10.7 30.9c1.4.2 2.9.2 4.3 0 .7-2 1.4-4 2.2-6h14.6c.8 2 1.3 4.1 2.2 6h4.3c-3.7-10.4-7.2-20.7-10.7-30.9zm-9.1 21c1.9-5.7 3.9-11.3 5.8-16.9h.3c2 5.6 3.9 11.2 5.9 16.9z"/></g></svg>